<svg xmlns="http://www.w3.org/2000/svg" width="121" height="37" viewBox="0 0 121 37"><g><g><g><path fill="#004094" d="M61.216 27.553c-.358-.012-.54-.18-.578-.526-.038-.346-.162-18.625.021-26.553a.3.3 0 0 1 .237-.292c.746-.195 3.075-.22 3.894-.11.182.023.296.123.306.389.128 3.076.215 22.555.012 26.646a.473.473 0 0 1-.499.452c-.954.001-3.11.004-3.393-.006zm54.925.02c-.149.005-.347-.005-.517-.247-.073-.104-1.125-1.586-2.253-3.256-1.226-1.818-2.55-3.853-3.014-4.479-.095-.129-.243-.135-.337-.044-.39.38-1.307 1.361-1.638 1.718-.077.082-.125.33-.125.33l-.07 5.598s-.056.325-.518.325c-.94.018-2.951.02-3.765-.026a.393.393 0 0 1-.365-.387c-.112-2.918-.38-23.777-.191-26.619.02-.197.238-.43.466-.455.815-.048 2.884-.036 3.703.007.16.008.442.187.448.422.09 1.777.14 12.581.15 15.105.002.337.139.39.373.153 1.302-1.309 5.665-5.687 7.095-7.02.308-.317.732-.343 1.084-.269.835.177 2.304.514 3.212.785.47.14.803.397.25.996-1.43 1.54-5.233 5.269-6.142 6.158-.127.124-.133.28-.017.44.478.657 1.956 2.363 3.358 4.304 1.524 2.11 2.98 4.467 3.533 5.297.137.205.05.412-.196.468-.992.227-4.221.673-4.524.696zm-30.777-9.52c-.03-5.25 3.627-9.677 9.566-9.716 3.705-.024 6.397 1.656 6.872 2.448.096.186.047.342-.02.529-.314.662-1.106 1.942-1.67 2.667-.241.309-.502.044-.805-.157-.842-.561-2.442-1.247-4.016-1.247-2.856 0-4.983 1.959-4.96 5.562.023 3.457 2.06 5.357 4.97 5.426 1.52.039 2.994-.836 3.787-1.552.25-.217.507-.108.791.114.559.57 1.36 1.452 1.804 2.058.29.337.073.667-.032.8-1.205 1.524-3.531 2.807-6.61 2.824-6.448.045-9.646-4.488-9.676-9.755zm-17.172-7.006c1.218-1.09 3.634-2.787 7.483-2.698 5.08.106 7.764 2.488 8.014 8.185.103 2.35-.067 8.903-.108 10.535-.006.235-.085.397-.401.403-.837.033-2.77.02-3.657.008-.449-.021-.5-.244-.506-.477l-.027-.971c-.005-.196-.188-.19-.235-.14-1.192 1.272-3.143 1.887-5.219 1.887-3.154 0-6.299-1.856-6.29-5.53.01-3.764 2.68-5.62 5.61-6.058 1.878-.28 3.994-.031 5.596.605.103.041.312-.018.314-.163.006-.48-.017-1.394-.11-1.827-.234-1.104-1.155-1.992-3.09-2.231-.398-.049-.799-.065-1.2-.033-1.538.12-3.388 1.32-4.154 1.768-.18.106-.463.029-.554-.09-.447-.577-1.571-2.266-1.66-2.536-.088-.27.036-.496.194-.638zm8.669 8.204c-2.605.034-4.994.746-5.063 2.782 0 1.616 1.31 2.41 3.15 2.305 1.764-.17 3.11-.935 3.703-1.95.219-.377.252-1.785.239-2.387-.004-.128-.257-.37-.368-.417-.553-.233-.963-.305-1.661-.334zm-33.563-5.1c0-3.582 2.611-6.083 7.357-6.083 2.896 0 5.266.925 6.55 1.83.183.13.51.443.314 1.027a25.14 25.14 0 0 1-1.045 2.187c-.193.358-.685.311-.938.183-.914-.463-2.414-1.247-3.792-1.392a8.067 8.067 0 0 0-1.05-.045c-1.214.027-2.228.448-2.585 1.374-.07.175-.109.361-.115.55-.033 1.22 1.664 1.66 3.721 2.014 3.824.655 6.717 1.776 6.717 5.712 0 3.342-2.656 6.363-7.86 6.27-3.432-.07-5.866-1.229-7.17-2.354-.045-.038-.541-.543-.275-1.152.305-.783.819-1.68 1.222-2.156.225-.306.816-.355 1.124-.164 1.075.668 2.845 1.74 4.884 1.81.161.006.32.007.477.003 1.835-.045 2.945-.74 2.922-1.912-.02-1.033-1.475-1.636-3.791-2.072-3.694-.696-6.667-1.914-6.667-5.63"/></g><g><path fill="#004094" d="M3.544 19.418c-1.328.01-2.453-.78-2.868-2.016a3.084 3.084 0 0 1 1.952-3.907l25.197-8.442c.3-.086.609-.131.92-.134 1.364-.01 2.52.798 2.944 2.06l.038.121c.471 1.648-.7 3.118-2.103 3.59L4.567 19.244a3.26 3.26 0 0 1-1.023.174z"/></g><g><path fill="#004094" d="M7.744 31.81c-1.339.01-2.467-.77-2.877-1.988a3.105 3.105 0 0 1 1.95-3.943l25.197-8.52a3.245 3.245 0 0 1 1-.167c1.342-.01 2.521.81 2.937 2.041l.039.128c.243.852.1 1.808-.385 2.563-.36.561-1.498 1.055-1.498 1.055L8.814 31.627a3.47 3.47 0 0 1-1.07.183z"/></g><g><path fill="#004094" d="M28.719 31.864a3.093 3.093 0 0 1-2.962-2.109l-8.41-24.978-.042-.14A3.092 3.092 0 0 1 19.296.852a3.08 3.08 0 0 1 2.365.161 3.087 3.087 0 0 1 1.56 1.786l8.408 24.977.024.08c.472 1.654-.402 3.317-1.972 3.846-.31.104-.635.158-.962.16z"/></g><g><path fill="#004094" d="M16.22 36.071a3.095 3.095 0 0 1-2.964-2.11L4.849 8.983A3.093 3.093 0 0 1 7.758 4.9a3.093 3.093 0 0 1 2.963 2.108l8.407 24.979a3.093 3.093 0 0 1-2.91 4.085h.001z"/></g><g><path fill="#004094" d="M24.573 26.239l5.864-2.005-1.917-5.692-5.87 1.983z"/></g><g><path fill="#004094" d="M12.093 30.506l5.863-2.005-1.931-5.735-5.87 1.984z"/></g><g><path fill="#004094" d="M20.399 13.84l5.864-2.002-1.894-5.626-5.875 1.968z"/></g><g><path fill="#004094" d="M7.917 18.101L13.78 16.1l-1.918-5.698L5.99 12.37z"/></g></g></g></svg>