<svg xmlns="http://www.w3.org/2000/svg" width="26" height="26" viewBox="0 0 26 26"><g><g transform="rotate(90 13 13)"><g><g><g><path fill="#064094" d="M13 23.748c-5.997 0-10.877-4.879-10.877-10.877C2.123 6.873 7.003 1.994 13 1.994c5.998 0 10.877 4.88 10.877 10.877 0 5.998-4.88 10.877-10.877 10.877zM13 0C5.902 0 .129 5.774.129 12.871.129 19.97 5.902 25.742 13 25.742c7.098 0 12.871-5.774 12.871-12.87C25.871 5.774 20.098 0 13 0z"/></g></g></g><g><g><g><path fill="#064094" d="M18.693 14.247l-4.985-4.985a.997.997 0 0 0-1.406 0l-4.985 4.985a.996.996 0 0 0 1.406 1.406L13 11.376l4.287 4.277a.996.996 0 0 0 1.406 0 .997.997 0 0 0 0-1.406z"/></g></g></g></g></g></svg>