<svg xmlns="http://www.w3.org/2000/svg" width="23" height="90" viewBox="0 0 23 90"><g><g><g transform="rotate(-180 11 85)"><path fill="#064094" d="M6 85a5 5 0 1 1 10 0 5 5 0 0 1-10 0z"/></g><g opacity=".2" transform="rotate(-180 11 67)"><path fill="#064094" d="M8 67a3 3 0 1 1 6 0 3 3 0 0 1-6 0z"/></g><g opacity=".2" transform="rotate(-180 11 51)"><path fill="#064094" d="M8 51a3 3 0 1 1 6 0 3 3 0 0 1-6 0z"/></g><g><g><path fill="#cdd9ea" d="M19.966 26.526c0 4.68-3.807 8.488-8.487 8.488S2.99 31.206 2.99 26.526V11.6c0-4.68 3.808-8.487 8.488-8.487s8.487 3.807 8.487 8.487zM11.48.939C5.599.939.816 5.722.816 11.6v14.925c0 5.88 4.783 10.663 10.663 10.663 5.879 0 10.662-4.784 10.662-10.663V11.6C22.141 5.721 17.358.94 11.48.94z"/></g><g><path fill="#cdd9ea" d="M11.479 8.15c-.6 0-1.088.487-1.088 1.087v5.006a1.087 1.087 0 1 0 2.175 0V9.237c0-.6-.487-1.087-1.087-1.087z"/></g></g></g></g></svg>