<svg xmlns="http://www.w3.org/2000/svg" width="40" height="44" viewBox="0 0 40 44"><g><g><g><path fill="#4886fc" d="M28.825 39.553c-4.051.036-7.205-3.086-7.255-7.184-.05-3.924 3.184-7.185 7.157-7.218 3.9-.032 7.199 3.236 7.241 7.174.042 3.946-3.167 7.193-7.143 7.228zm-8.258-.088zm-.706.084c-5.114.006-10.228-.01-15.34.02-.756.005-.976-.21-.974-.975.025-10.163.02-20.325.004-30.488 0-.679.16-.99.903-.968 1.465.042 2.931.011 4.466.011.055.56.068.974.142 1.38.237 1.338 1.235 2.217 2.593 2.222 4.185.016 8.373.014 12.558 0 1.489-.003 2.598-1.05 2.736-2.534.03-.312.006-.63.006-1.062 1.657 0 3.247-.002 4.835.002.655 0 .547.485.547.89.004 3.163.002 6.326.002 9.49v4.572c-5.644-1.34-10.236.086-13.078 5.26-2.295 4.174-1.552 8.25 1.306 12.096-.255.03-.481.084-.706.084zM12.647 3.644h10.638V7.14H12.647zm24 21.427c-.523-.566-.713-1.109-.707-1.859.028-5.016.015-10.032.013-15.048-.002-3.029-1.504-4.531-4.527-4.535-1.462-.002-2.924 0-4.471 0C27.118 1.85 26.45.633 24.85 0H11.04C9.526.666 8.791 1.805 9.002 3.558c-.338.027-.608.067-.879.07-1.436.005-2.875-.018-4.312.01C1.801 3.68.25 5.13.041 7.133-.003 7.544 0 7.96 0 8.377L0 38.27c0 2.89.594 3.803 3.175 4.89h26.854c1.502-.57 3.145-.918 4.483-1.748 5.74-3.566 6.724-11.39 2.135-16.341z"/></g><g><path fill="#4886fc" d="M10.446 17.97c.094 0 .187-.003.28-.003h.129l-.128-.001c-.094 0-.187.001-.28.004zm-1.187.007c.255.008.51.006.768 0"/></g><g><path fill="#4886fc" d="M19.719 23.318c.025 1.083-.702 1.82-1.878 1.826-2.908.017-5.818.017-8.726 0-1.168-.006-1.94-.762-1.916-1.804.02-1.007.765-1.697 1.899-1.71 1.471-.02 2.94-.006 4.412-.006 1.438 0 2.875-.012 4.314.004 1.193.015 1.872.637 1.895 1.69z"/></g><g><path fill="#4886fc" d="M28.72 16.16c.01 1.121-.709 1.787-2.003 1.811-1.117.022-2.235.004-3.352.004-1.118 0-2.234.016-3.353-.004-1.23-.022-2.056-.77-2.039-1.808.02-1.046.84-1.765 2.083-1.773 2.205-.013 4.407-.013 6.61 0 1.276.008 2.04.687 2.053 1.77z"/></g><g><path fill="#4886fc" d="M16.16 30.591c-.015 1.046-.833 1.751-2.078 1.765-1.119.012-2.237.002-3.354.002-1.118 0-2.236.015-3.353-.004-1.223-.023-1.945-.689-1.954-1.759-.008-1.097.752-1.81 2-1.818 2.235-.016 4.47-.016 6.706 0 1.226.007 2.045.76 2.032 1.814z"/></g><g><path fill="#4886fc" d="M14.327 16.138c.02 1.024-.608 1.732-1.686 1.82a8.988 8.988 0 0 1-.716.025c-.157 0-.314-.002-.472-.006l-.105-.002c-.123-.001-.244-.005-.366-.005-.043-.003-.085-.003-.127-.003h-.129c-.093 0-.186.003-.28.003-.14.001-.28.005-.42.007-.257.006-.512.008-.767 0a7.194 7.194 0 0 1-.351-.019c-1.044-.083-1.73-.842-1.707-1.82.02-.934.696-1.68 1.703-1.729a41.077 41.077 0 0 1 3.733 0c1.01.044 1.673.783 1.69 1.729z"/></g><g><path fill="#4886fc" d="M33.482 31.957a170.66 170.66 0 0 1-3.385 3.383c-.85.83-1.825.81-2.701-.022a46.014 46.014 0 0 1-1.556-1.56c-.806-.844-.857-1.914-.146-2.635.7-.71 1.773-.668 2.651.105.12.104.232.213.47.432.748-.773 1.44-1.521 2.17-2.237.855-.838 1.872-.865 2.624-.108.72.724.684 1.808-.127 2.642z"/></g></g></g></svg>