<svg xmlns="http://www.w3.org/2000/svg" width="186" height="31" viewBox="0 0 186 31"><g><g><g><path fill="#bdc2de" d="M11.663 17.08c0-1.953-1.269-3.173-3.172-3.173H5.807c-.878.098-1.269.635-1.269 1.66V20.3h3.953c1.952 0 3.172-1.22 3.172-3.22zM4.538 7.514v2.733H8.1c2.001 0 2.733-1.562 2.733-2.88 0-1.756-1.025-2.781-2.781-2.781H6.05c-1.025.049-1.464.586-1.464 1.66v1.268zm11.76 9.906c0 4.197-3.171 6.88-8.149 6.88H0V3.27C0 1.952 1.074.88 2.391.83h5.66c4.441 0 7.32 2.392 7.32 6.1 0 2.44-1.22 3.807-1.952 4.441l-.634.537.732.39c1.757.927 2.782 2.83 2.782 5.124zm94.62-2c0-3.807-2.05-4.246-3.611-4.246-3.123 0-3.367 3.123-3.367 4.099 0 2.147.927 4.49 3.61 4.49 1.562-.05 3.368-.782 3.368-4.344zm4.782 7.465c0 5.954-4.83 8.1-8.979 8.1-2 0-4.245-.536-5.953-1.463l-.342-.195.537-1.415.39-.976c.44-1.025 1.025-1.27 2.05-.976.78.292 1.952.585 3.27.585 2.683 0 4.147-1.269 4.147-3.513v-.488l-.39.293c-.976.731-2.196 1.073-3.757 1.073-4.539 0-7.71-3.562-7.71-8.637 0-5.075 3.074-8.491 7.612-8.491 2.293 0 3.709.78 4.49 1.464l.243.195.147-.244c.341-.683 1.073-1.025 2-1.025h2.245zm-65.877-7.075c0-2.782-1.708-4.685-4.148-4.685-2.44 0-4.148 1.952-4.148 4.685 0 2.781 1.708 4.684 4.148 4.684 2.489 0 4.148-1.903 4.148-4.684zm4.782 0c0 5.123-3.757 8.832-8.93 8.832s-8.881-3.709-8.881-8.832c0-5.124 3.757-8.833 8.881-8.833 5.173 0 8.93 3.709 8.93 8.833zM78.37 9.906V24.35h-4.783V7.32h2.294c1.708 0 2.537.83 2.489 2.586zm12.882-2.977c4.002 0 6.1 2.294 6.051 6.588V24.35H95.01c-1.757 0-2.586-.83-2.586-2.586v-7.417c0-2.099-.586-2.88-2.099-2.88-1.903 0-3.416 1.123-3.952 2.977a6.707 6.707 0 0 0-.293 2.05v7.856H81.2V7.32h2.196c1.366 0 2.245.536 2.489 1.561l.097.39.293-.292c.878-.927 2.489-2.05 4.977-2.05zM69.391 19.763l2.781 4.636h-3.757c-1.415 0-2.196-.244-2.928-1.61l-2.684-5.075c-.195-.342-.585-.39-1.122-.39h-.44v7.075h-4.88V.781h2.294c1.318 0 2.587.293 2.587 2.293v10.004h.78c.586 0 .976-.146 1.171-.44l3.416-5.27h5.515l-4.539 6.783a6.969 6.969 0 0 1-.732.879l-.146.146.146.147c.244.244.488.536.684.927zm-38.648-3.952c0-2.782-1.708-4.685-4.148-4.685-2.44 0-4.148 1.952-4.148 4.685 0 2.781 1.708 4.684 4.148 4.684 2.489 0 4.148-1.903 4.148-4.684zm4.782 0c0 5.123-3.757 8.832-8.93 8.832s-8.881-3.709-8.881-8.832c0-5.124 3.757-8.833 8.88-8.833 5.174 0 8.931 3.709 8.931 8.833zM78.662 2.83a2.832 2.832 0 0 1-2.83 2.83 2.832 2.832 0 0 1-2.83-2.83A2.832 2.832 0 0 1 75.832 0a2.832 2.832 0 0 1 2.83 2.83z"/></g><g><path fill="#bdc2de" d="M138.391 18.153l2.001 3.318-.146.147c0 .048-2.538 3.074-7.125 3.074-5.319 0-9.174-3.758-9.174-8.881 0-5.124 3.904-8.882 9.272-8.882 2.537 0 6.246 1.074 6.246 4.002v2.245h-2.538c-.195 0-1.317-.098-1.659-1.27v-.097c-.146-.537-1.122-.83-2-.83-2.684 0-4.539 2.001-4.539 4.832 0 3.27 2.44 4.733 4.831 4.733 2.635 0 4.636-2.098 4.636-2.098zm42.015-11.175c3.758 0 5.66 2.196 5.612 6.441v10.834h-2.196c-1.708 0-2.488-.781-2.488-2.49V14.2c0-2.147-.537-2.976-1.952-2.976-1.952 0-3.221 1.805-3.611 3.513a8.427 8.427 0 0 0-.244 2.05V24.3h-4.685V14.25c0-1.903-.586-2.879-1.854-2.977-2.05-.195-3.27 1.757-3.709 3.563-.146.683-.244 1.366-.244 2v7.515h-4.636V7.37h2.05c1.317 0 2.147.536 2.39 1.463l.196.635.44-.488c.731-.732 2.244-2 4.489-2 2.147 0 3.708.829 4.587 2.488l.292.488.342-.44a6.684 6.684 0 0 1 5.221-2.537zm-26.448 8.833c0-2.782-1.708-4.685-4.148-4.685-2.44 0-4.148 1.952-4.148 4.685 0 2.781 1.708 4.684 4.148 4.684 2.489 0 4.148-1.903 4.148-4.684zm4.782 0c0 5.123-3.757 8.832-8.93 8.832s-8.881-3.709-8.881-8.832c0-5.124 3.757-8.833 8.881-8.833 5.173 0 8.93 3.709 8.93 8.833zm-35.476 5.904a2.832 2.832 0 0 1-2.83 2.83 2.832 2.832 0 0 1-2.83-2.83 2.832 2.832 0 0 1 2.83-2.83 2.832 2.832 0 0 1 2.83 2.83z"/></g></g></g></svg>