<svg xmlns="http://www.w3.org/2000/svg" width="163" height="32" viewBox="0 0 163 32"><g><g><g><path fill="#bdc2de" d="M28.268 24.097l9.437-6.024-9.437-6.024 9.437-6.025L28.268 0l-9.395 6.024 9.437 5.983-9.436 6.024zm-9.437 7.92l9.437-6.024-9.437-6.024-9.436 6.024zM9.437 0L0 6.024l9.437 5.983L0 18.03l9.437 6.066 9.437-6.024-9.437-6.024 9.437-6.025z"/></g><g><path fill="#bdc2de" d="M145.553 25.951h4.93l3.622-5.35 3.708 5.35h4.76l-6.066-8.426 5.771-7.71h-4.802l-3.328 4.888-3.244-4.887h-4.887l5.687 7.794zm-7.54-3.202c-2.402 0-3.918-1.643-3.918-4.55v-.42c0-3.16 1.558-4.803 3.917-4.803 2.402 0 3.918 1.811 3.918 4.802v.421c0 2.95-1.516 4.55-3.918 4.55zm0 3.708c4.844 0 8.172-2.865 8.172-8.173v-.464c0-5.434-3.37-8.383-8.173-8.383-4.718 0-8.172 2.949-8.172 8.383v.464c0 5.308 2.949 8.13 8.172 8.173zM123.73 18.03c0 3.202-1.475 4.76-3.918 4.718-2.317 0-3.876-1.77-3.876-4.76v-.337c0-2.823 1.601-4.676 3.918-4.676 2.275 0 3.876 1.685 3.876 4.634v.42zm-7.836 5.013c.843 2.107 2.612 3.37 5.35 3.455 4.129 0 6.825-3.076 6.825-8.426v-.505c0-5.393-2.865-8.047-6.74-8.09-2.57 0-4.382 1.138-5.266 3.245v-8.3h-4.129v21.57h3.623l.337-2.949zm-14.408-.21c-2.359 0-3.876-1.812-3.876-4.677v-.295c0-2.99 1.56-4.802 3.918-4.802 2.233 0 3.876 1.6 3.876 4.802v.337c0 3.034-1.516 4.592-3.918 4.635zm-7.962 8.804h4.129v-8.173c.884 1.854 2.611 2.992 5.181 2.992 3.834 0 6.825-2.823 6.825-8.131v-.464c0-5.476-2.696-8.425-6.825-8.425-2.654 0-4.465 1.39-5.308 3.454l-.421-3.075h-3.497zM83.161 22.75c-2.4 0-3.918-1.643-3.918-4.55v-.42c0-3.16 1.56-4.803 3.918-4.803 2.402 0 3.918 1.811 3.918 4.802v.421c0 2.95-1.516 4.55-3.918 4.55zm.043 3.708c4.929 0 8.172-2.865 8.172-8.173v-.464c0-5.434-3.37-8.383-8.172-8.383-4.719 0-8.173 2.949-8.173 8.383v.464c0 5.308 2.949 8.13 8.173 8.173zM63.824 9.816h.043v-.042h-.043zm.043 0v16.177h4.212V18.58c0-3.413.843-4.635 4.298-4.635h1.769V9.647h-1.053c-2.991 0-4.677 1.348-5.308 3.918l-.548-3.75zM52.45 9.647c2.822 0 4.76 1.812 4.76 5.814v1.053c0 4.002-1.853 5.814-4.634 5.814h-3.244V9.648zm-7.373 16.346h7.794c4.971 0 8.72-2.907 8.72-9.394V15.25c0-6.403-4.002-9.226-8.888-9.226h-7.626z"/></g></g></g></svg>