<svg xmlns="http://www.w3.org/2000/svg" width="101" height="28" viewBox="0 0 101 28"><g><g><g><path fill="#bdc2de" d="M22.92 3.963v6.687h5.172v3.96h-5.171v6.337a358.01 358.01 0 0 1 5.948-.397v3.966c-3.426.2-6.85.447-10.27.743V0h10.278v3.962zM4.13 26.793c-1.37.174-2.74.353-4.104.542H0V.001h4.307l5.5 15.612V.001h4.131v25.686c-1.574.156-3.144.322-4.712.498L4.13 11.722v15.071zm32.922-2.667zm0 0V3.964h-4.024V.002h12.355v3.962h-4.024v20.033a381.63 381.63 0 0 0-4.306.129zm13.365-.242c-.28 0-.56.004-.84.004V0h10.278v3.963H53.9v6.687h5.171v3.957H53.9v9.294c-1.159-.01-2.32-.018-3.482-.018zm28.032 1.06V0h4.305v25.297a434.031 434.031 0 0 0-4.305-.354zm7.562.654l5.255-12.98L86.82.003h4.306l2.443 6.932L96.35.064 96.396 0h4.361l-5.15 12.717 5.149 14.61a369.79 369.79 0 0 0-4.514-.593l-2.937-8.332-3.089 7.628a385.9 385.9 0 0 0-4.205-.433zM68.386 20.36V0h-4.323v24.14c3.439.127 6.865.303 10.28.524v-3.967c-1.982-.128-3.967-.24-5.957-.336"/></g></g></g></svg>