<svg xmlns="http://www.w3.org/2000/svg" width="111" height="34" viewBox="0 0 111 34"><g><g><g><path fill="#bdc2de" d="M55.653 25.262c-.328-.011-.494-.165-.53-.483-.035-.317-.148-17.076.02-24.345a.275.275 0 0 1 .216-.267c.685-.179 2.82-.202 3.571-.102.166.022.27.114.28.358.118 2.82.198 20.679.012 24.43a.434.434 0 0 1-.458.414c-.875.001-2.851.003-3.111-.005zm50.357.017v.001c-.137.004-.318-.005-.474-.226-.067-.096-1.032-1.455-2.065-2.986-1.125-1.666-2.338-3.532-2.764-4.106-.088-.118-.223-.124-.31-.04a63.237 63.237 0 0 0-1.5 1.574c-.072.076-.115.304-.115.304l-.064 5.132s-.052.297-.476.297c-.86.017-2.705.02-3.451-.024a.36.36 0 0 1-.335-.354c-.102-2.675-.348-21.8-.176-24.405.019-.18.219-.394.428-.418.748-.044 2.644-.032 3.395.007.146.008.405.171.411.387.083 1.629.128 11.534.138 13.848.001.31.126.358.341.141 1.194-1.2 5.194-5.214 6.505-6.437.282-.29.671-.314.994-.246.766.162 2.113.471 2.945.72.431.128.736.364.229.913-1.311 1.412-4.798 4.83-5.631 5.646-.116.113-.122.257-.015.404.438.601 1.792 2.166 3.078 3.945 1.397 1.935 2.732 4.096 3.24 4.857.125.188.045.377-.18.429-.91.208-3.87.617-4.148.637zm-28.217-8.728c-.028-4.812 3.325-8.872 8.77-8.907 3.397-.022 5.865 1.518 6.3 2.244.089.17.043.313-.018.485-.287.607-1.014 1.78-1.532 2.445-.22.284-.46.04-.737-.144-.772-.514-2.239-1.143-3.682-1.143-2.619 0-4.569 1.796-4.547 5.1.02 3.17 1.888 4.911 4.556 4.974 1.394.035 2.746-.766 3.472-1.423.229-.199.465-.1.726.105.512.523 1.246 1.33 1.653 1.887.267.309.067.61-.029.732-1.104 1.398-3.238 2.574-6.06 2.59-5.912.042-8.844-4.115-8.872-8.944zM68.91 7.655c4.657.097 7.118 2.28 7.347 7.504.095 2.154-.062 8.162-.1 9.66-.005.214-.077.362-.367.368-.767.03-2.539.019-3.353.008-.41-.02-.459-.224-.464-.437l-.024-.891c-.005-.18-.173-.174-.216-.129-1.092 1.167-2.882 1.73-4.784 1.73-2.892 0-5.776-1.7-5.767-5.07.01-3.45 2.456-5.153 5.143-5.554 1.721-.256 3.661-.028 5.13.555.094.038.286-.016.288-.15.006-.44-.015-1.277-.1-1.674-.215-1.012-1.06-1.826-2.833-2.046a5.456 5.456 0 0 0-1.1-.03c-1.41.11-3.107 1.21-3.81 1.621-.165.097-.424.026-.507-.082-.41-.53-1.44-2.079-1.522-2.326-.081-.247.033-.455.177-.585v.001c1.118-1 3.332-2.555 6.862-2.473zm1.087 9.995c-2.389.03-4.579.684-4.642 2.55 0 1.482 1.2 2.21 2.887 2.114 1.618-.156 2.852-.857 3.395-1.788.201-.346.232-1.637.22-2.188-.003-.118-.236-.34-.337-.383-.508-.214-.883-.28-1.524-.306zm-30.772-4.676c0-3.284 2.394-5.577 6.746-5.577 2.654 0 4.827.848 6.004 1.678.168.119.469.406.289.941-.231.576-.655 1.443-.959 2.006-.176.328-.628.285-.86.167-.838-.424-2.213-1.143-3.476-1.276a7.396 7.396 0 0 0-.963-.041c-1.113.024-2.042.41-2.37 1.26-.064.16-.1.33-.105.503-.031 1.119 1.526 1.523 3.411 1.847 3.506.601 6.158 1.629 6.158 5.237 0 3.064-2.435 5.834-7.207 5.749-3.145-.064-5.377-1.127-6.573-2.158-.04-.035-.496-.499-.252-1.056.28-.718.751-1.54 1.12-1.978.207-.28.75-.325 1.031-.15.986.613 2.608 1.595 4.478 1.66.148.005.294.006.438.002 1.682-.04 2.7-.678 2.678-1.753-.018-.946-1.352-1.5-3.475-1.9-3.388-.637-6.112-1.754-6.112-5.161"/></g><g><path fill="#bdc2de" d="M2.777 17.803c-1.217.01-2.248-.716-2.629-1.848a2.827 2.827 0 0 1 1.79-3.582l23.101-7.74c.274-.08.558-.12.844-.123 1.25-.01 2.31.732 2.699 1.888l.035.112c.432 1.51-.642 2.858-1.928 3.29L3.716 17.645a2.99 2.99 0 0 1-.939.16z"/></g><g><path fill="#bdc2de" d="M6.628 29.164c-1.227.01-2.262-.706-2.638-1.822a2.847 2.847 0 0 1 1.788-3.615l23.102-7.811c.298-.1.606-.15.916-.154 1.23-.009 2.312.743 2.693 1.872l.036.117c.223.78.091 1.657-.353 2.35-.33.514-1.373.967-1.373.967l-23.19 7.93a3.181 3.181 0 0 1-.981.167z"/></g><g><path fill="#bdc2de" d="M25.859 29.214a2.836 2.836 0 0 1-2.716-1.933l-7.71-22.902-.039-.128A2.835 2.835 0 0 1 17.22.78a2.823 2.823 0 0 1 2.168.148 2.83 2.83 0 0 1 1.43 1.638l7.708 22.9.023.073c.433 1.517-.369 3.04-1.809 3.526a2.867 2.867 0 0 1-.881.148z"/></g><g><path fill="#bdc2de" d="M14.398 33.071a2.837 2.837 0 0 1-2.717-1.934L3.974 8.236A2.836 2.836 0 0 1 6.64 4.491a2.836 2.836 0 0 1 2.716 1.933l7.708 22.902a2.836 2.836 0 0 1-2.668 3.745h.001z"/></g><g><path fill="#bdc2de" d="M22.058 24.056l5.376-1.838L25.676 17l-5.382 1.82z"/></g><g><path fill="#bdc2de" d="M10.615 27.969l5.376-1.838-1.771-5.259-5.38 1.82z"/></g><g><path fill="#bdc2de" d="M18.23 12.689l5.377-1.836-1.737-5.158L16.484 7.5z"/></g><g><path fill="#bdc2de" d="M6.787 16.596l5.376-1.836-1.758-5.224-5.386 1.805z"/></g></g></g></svg>