<svg xmlns="http://www.w3.org/2000/svg" width="134" height="41" viewBox="0 0 134 41"><g><g><path fill="#bdc2de" d="M131.812 16.747c.283 0 .453.127.453.363 0 .224-.17.362-.453.362h-.569v-.725zm.37 1.035c.315-.091.533-.32.53-.697 0-.459-.35-.731-.882-.731h-1.023v2.293h.436v-.794h.479l.556.794h.52l-.617-.865zm-.484-2.19c1.112 0 1.954.876 1.954 1.965 0 1.09-.848 1.979-1.967 1.979-1.113 0-1.954-.878-1.954-1.966 0-1.09.847-1.979 1.966-1.979zm-.013 4.162c1.227 0 2.195-1 2.195-2.197a2.175 2.175 0 0 0-2.184-2.183 2.196 2.196 0 0 0-2.196 2.196c0 1.198.956 2.184 2.184 2.184zm-27.192-10.52a2.226 2.226 0 1 0-.005 4.452 2.226 2.226 0 0 0 .006-4.452zm1.534 6.166h-3.104a.228.228 0 0 0-.227.228V29.17c0 .125.102.227.227.227h3.104a.228.228 0 0 0 .228-.227V15.629a.227.227 0 0 0-.228-.228zm6.9.014v-.43c0-1.26.484-1.824 1.569-1.824.647 0 1.167.129 1.749.323a.227.227 0 0 0 .298-.216V10.65c0-.1-.064-.188-.16-.218a8.522 8.522 0 0 0-2.58-.37c-2.867 0-4.382 1.614-4.382 4.667v.657h-1.492a.228.228 0 0 0-.227.227v2.681c0 .125.102.228.227.228h1.492V29.17c0 .125.1.227.226.227h3.104a.228.228 0 0 0 .227-.227V18.524h2.898l4.44 10.644c-.504 1.118-1 1.34-1.676 1.34-.547 0-1.123-.163-1.712-.485a.233.233 0 0 0-.18-.017.23.23 0 0 0-.135.123l-1.052 2.308a.226.226 0 0 0 .098.293c1.098.595 2.09.849 3.315.849 2.292 0 3.559-1.068 4.675-3.94l5.385-13.915a.227.227 0 0 0-.21-.31h-3.232a.228.228 0 0 0-.215.153l-3.31 9.455-3.626-9.461a.227.227 0 0 0-.211-.147h-5.304.001zm-11.901-.014H97.61v-3.492a.227.227 0 0 0-.226-.227H94.28a.228.228 0 0 0-.227.227V15.4H92.56a.227.227 0 0 0-.226.228v2.667c0 .125.101.228.226.228h1.493v6.902c0 2.79 1.388 4.204 4.126 4.204 1.114 0 2.037-.23 2.908-.724a.226.226 0 0 0 .115-.196v-2.54a.227.227 0 0 0-.33-.205c-.597.301-1.175.44-1.821.44-.996 0-1.44-.452-1.44-1.465v-6.415h3.415a.227.227 0 0 0 .226-.228V15.63a.22.22 0 0 0-.223-.228zM84.659 26.555c-2.225 0-3.903-1.787-3.903-4.158 0-2.38 1.62-4.107 3.851-4.107 2.24 0 3.929 1.787 3.929 4.16 0 2.38-1.63 4.105-3.877 4.105zm0-11.439c-4.184 0-7.461 3.222-7.461 7.334 0 4.069 3.255 7.256 7.41 7.256 4.198 0 7.485-3.21 7.485-7.308 0-4.083-3.265-7.281-7.435-7.281zM72.62 22.398c0 2.435-1.5 4.133-3.646 4.133-2.123 0-3.724-1.776-3.724-4.133 0-2.356 1.601-4.132 3.724-4.132 2.112 0 3.646 1.737 3.646 4.132zm-2.927-7.282c-1.749 0-3.182.689-4.365 2.1v-1.588a.227.227 0 0 0-.227-.228h-3.104a.227.227 0 0 0-.226.228v17.645c0 .126.101.228.226.228h3.104a.227.227 0 0 0 .227-.228v-5.57c1.183 1.328 2.617 1.976 4.365 1.976 3.248 0 6.536-2.5 6.536-7.28.005-4.782-3.284-7.283-6.533-7.283zm-15.07 3.419c-3.467-.827-4.084-1.407-4.084-2.626 0-1.152 1.084-1.927 2.697-1.927 1.563 0 3.113.589 4.738 1.8a.227.227 0 0 0 .32-.05l1.694-2.386a.227.227 0 0 0-.044-.309c-1.934-1.552-4.111-2.306-6.657-2.306-3.743 0-6.357 2.246-6.357 5.46 0 3.446 2.255 4.666 6.152 5.608 3.317.764 3.877 1.404 3.877 2.549 0 1.268-1.132 2.056-2.954 2.056-2.023 0-3.674-.682-5.52-2.28a.237.237 0 0 0-.167-.055.225.225 0 0 0-.155.08l-1.898 2.26a.225.225 0 0 0 .022.314c2.148 1.917 4.79 2.93 7.641 2.93 4.034 0 6.64-2.203 6.64-5.614.007-2.88-1.717-4.474-5.938-5.5zm-22.671-.736zM8.628 15.477a1.878 1.878 0 0 1-1.09-3.594C14.63 9.73 26.42 10.146 33.87 14.57a1.878 1.878 0 0 1-1.916 3.23c-6.472-3.844-17.147-4.197-23.325-2.322zm23.114 8.014zm-2.153.516c-5.396-3.317-13.623-4.278-20.006-2.34a1.567 1.567 0 0 1-1.954-1.043c-.249-.828.218-1.7 1.044-1.952 7.292-2.213 16.356-1.141 22.553 2.667.736.454.969 1.417.516 2.152a1.566 1.566 0 0 1-2.153.516zm-.304 4.95a1.25 1.25 0 0 1-1.721.417c-4.715-2.882-10.649-3.533-17.637-1.936a1.25 1.25 0 1 1-.557-2.44c7.648-1.748 14.208-.995 19.5 2.238.59.362.776 1.132.414 1.722zM20.077 0zM0 20.077c0 11.09 8.99 20.078 20.077 20.078 11.089 0 20.077-8.988 20.077-20.078C40.154 8.99 31.166.002 20.077.002V0C8.99 0 0 8.99 0 20.077z"/></g></g></svg>