<svg xmlns="http://www.w3.org/2000/svg" width="147" height="23" viewBox="0 0 147 23"><g><g opacity=".63"><g opacity=".63"><path fill="#bdc2de" d="M133.647 13.188l2.16-7.463h.036l2.16 7.463zm13.23 8.803L140.33.39h-9.014l-6.545 21.602h6.345l1.156-4h7.099l1.161 4z"/></g><g opacity=".63"><path fill="#bdc2de" d="M35.707 13.6c-.163 3.334-1.479 3.723-4.04 3.723-2.56 0-3.876-.39-4.041-3.724a45.223 45.223 0 0 1-.055-2.411c0-1.187.029-1.888.055-2.408.165-3.334 1.48-3.723 4.04-3.723 2.562 0 3.878.389 4.041 3.723.026.52.058 1.22.058 2.408a44.5 44.5 0 0 1-.058 2.411zM31.667 0c-6.514 0-9.661 1.146-10.105 7.026-.109 1.398-.13 2.835-.13 4.162.002 1.33.022 2.766.13 4.165.444 5.878 3.591 7.026 10.105 7.026s9.662-1.147 10.108-7.026c.107-1.398.127-2.834.127-4.165.002-1.327-.02-2.764-.127-4.162C41.33 1.146 38.181 0 31.667 0z"/></g><g opacity=".63"><path fill="#bdc2de" d="M0 5.784h6.458V22h6.46V5.784h6.457V.399H0z"/></g><g opacity=".63"><path fill="#bdc2de" d="M92.984 21.991V.389h6.13V21.99z"/></g><g opacity=".63"><path fill="#bdc2de" d="M81.53 8.276h-7.082V.389h-6.095V21.99h6.095v-8.33h7.083v8.33h6.094V.39H81.53z"/></g><g opacity=".63"><path fill="#bdc2de" d="M114.868 17.05h-4.226v-3.933h4.226c1.709 0 2.064.748 2.064 1.965 0 1.218-.668 1.967-2.064 1.967zm-4.226-11.721h4.226c1.104 0 1.786.523 1.786 1.782 0 1.079-.675 1.743-1.786 1.743h-4.226zm8.636 5.37l-.001.001h.001zm3.51-4.66c0-4.747-2.986-5.65-7.233-5.65h-11.006V21.99H116.1c5.319 0 7.107-2.291 7.107-5.815 0-2.457-.562-4.624-3.93-5.475 2.715-.694 3.51-2.316 3.51-4.66z"/></g><g opacity=".63"><path fill="#bdc2de" d="M61.62 9.784c-1.52-.896-5.785-1.033-7.95-1.171-1.575-.102-2.175-.683-2.175-2.07 0-1.82 1.732-1.887 3.231-1.887 1.237 0 2.095.112 2.697.646.233.237.52.596.53 1.868h5.797c0-2.495-.08-5.185-2.776-6.428-2.145-.987-10.114-.987-12.145 0-1.968.958-3.332 2.33-3.332 6.24 0 2.298.61 4 1.784 4.871 1.724 1.281 3.399 1.412 8.029 1.658 1.867.1 2.879.465 2.879 2.07 0 2.036-1.81 2.036-3.463 2.036-1.716 0-2.234-.144-2.812-.58-.51-.387-.644-1.087-.649-2.135h-5.81c0 2.976.057 5.417 2.865 6.641 2.51 1.1 10.23 1.1 12.541.08 2.004-.886 3.442-2.066 3.442-6.09.001-2.782-.551-4.488-2.683-5.749z"/></g></g></g></svg>