<svg xmlns="http://www.w3.org/2000/svg" width="83" height="70" viewBox="0 0 83 70"><g><g><g><path fill="#4886fc" d="M54.378 35.97h-5.305V14.75h5.305zm-10.61 0h-5.305V20.057h5.305zm-10.61 0h-5.305V25.36h5.305zm44.43-34.482H4.643a3.315 3.315 0 0 0-3.316 3.314V47.907h79.576V4.804a3.315 3.315 0 0 0-3.313-3.316z"/></g><g><path fill="#57a4ff" d="M33.158 55.865l-2.653 7.957h21.22l-2.652-7.957z"/></g><g><g><path fill="#004fac" d="M79.577 46.58H2.654V4.805a1.991 1.991 0 0 1 1.989-1.99h72.945c1.098.001 1.988.891 1.989 1.99zm0 5.97a1.991 1.991 0 0 1-1.99 1.989H4.644a1.991 1.991 0 0 1-1.99-1.99v-3.316h76.924zm-47.232 9.946l1.77-5.305h14.001l1.77 5.305zm23.36 2.653v1.326H26.525v-1.326zM4.642.162A4.647 4.647 0 0 0 0 4.804v47.745a4.647 4.647 0 0 0 4.642 4.642h26.674l-1.768 5.305H25.2c-.732 0-1.326.594-1.326 1.326v2.653h-7.958a1.326 1.326 0 1 0 0 2.652h50.398a1.326 1.326 0 0 0 0-2.652h-7.957v-2.653c0-.732-.594-1.326-1.327-1.326h-4.348l-1.769-5.305h26.675a4.647 4.647 0 0 0 4.641-4.642V4.804A4.647 4.647 0 0 0 77.588.162z"/></g><g><path fill="#004fac" d="M18.569 50.56H6.632a1.326 1.326 0 1 0 0 2.652H18.57a1.326 1.326 0 0 0 0-2.652z"/></g><g><path fill="#004fac" d="M23.874 50.56h-1.326a1.326 1.326 0 1 0 0 2.652h1.326a1.326 1.326 0 0 0 0-2.652z"/></g><g><path fill="#004fac" d="M39.789 21.382h2.652v13.263H39.79zm-1.326 15.915h5.305c.732 0 1.326-.594 1.326-1.326V20.056c0-.733-.594-1.327-1.326-1.327h-5.305c-.733 0-1.327.594-1.327 1.327V35.97c0 .732.594 1.326 1.327 1.326z"/></g><g><path fill="#004fac" d="M29.179 26.687h2.652v7.958H29.18zm-1.326 10.61h5.305c.732 0 1.326-.594 1.326-1.326V25.36c0-.733-.594-1.327-1.326-1.327h-5.305c-.733 0-1.327.594-1.327 1.327v10.61c0 .732.594 1.326 1.327 1.326z"/></g><g><path fill="#004fac" d="M50.4 16.077h2.652v18.568h-2.653zm-1.327 21.22h5.305c.732 0 1.326-.594 1.326-1.326V14.75c0-.733-.594-1.327-1.326-1.327h-5.305c-.733 0-1.326.594-1.326 1.327v21.22c0 .732.593 1.326 1.326 1.326z"/></g><g><path fill="#004fac" d="M23.874 41.276h34.483a1.326 1.326 0 0 0 0-2.653H25.2V10.772a1.326 1.326 0 1 0-2.652 0V39.95c0 .732.593 1.326 1.326 1.326z"/></g></g></g></g></svg>