<svg xmlns="http://www.w3.org/2000/svg" width="85" height="69" viewBox="0 0 85 69"><g><g><g><g><g><path fill="#4886fc" d="M68.053 47.637v4.083H45.795a5.447 5.447 0 0 0-1.116-8.928l-1.125-10.127h-2.722l-1.124 10.127a5.446 5.446 0 0 0-1.116 8.928H16.333v-4.083c0-14.282 11.578-25.86 25.86-25.86 14.283 0 25.86 11.578 25.86 25.86z"/></g><g><path fill="#4886fc" d="M83.025 4.764v4.763H1.362V4.764a3.402 3.402 0 0 1 3.4-3.403H79.623a3.401 3.401 0 0 1 3.402 3.4z"/></g></g><g><path fill="#4886fc" d="M68.053 47.637v4.083H45.795a5.447 5.447 0 0 0-1.116-8.928l-1.125-10.127h-2.722l-1.124 10.127a5.446 5.446 0 0 0-1.116 8.928H16.333v-4.083c0-14.282 11.578-25.86 25.86-25.86 14.283 0 25.86 11.578 25.86 25.86z"/></g><g><g/><g/></g></g><g><g><path fill="#004fac" d="M81.664 8.166H2.723V4.764a2.043 2.043 0 0 1 2.041-2.042h74.859c1.127.001 2.04.915 2.041 2.042zm0 55.123c0 1.127-.914 2.04-2.041 2.042H4.764a2.043 2.043 0 0 1-2.041-2.042v-52.4h78.941zM79.623 0H4.764A4.77 4.77 0 0 0 0 4.764v58.525a4.77 4.77 0 0 0 4.764 4.764h74.859a4.769 4.769 0 0 0 4.763-4.764V4.764A4.769 4.769 0 0 0 79.623 0z"/></g><g><path fill="#004fac" d="M5.445 6.805h1.36a1.361 1.361 0 0 0 0-2.722h-1.36a1.361 1.361 0 1 0 0 2.722z"/></g><g><path fill="#004fac" d="M10.889 6.805h1.361a1.361 1.361 0 1 0 0-2.722H10.89a1.361 1.361 0 1 0 0 2.722z"/></g><g><path fill="#004fac" d="M16.333 6.805h1.361a1.361 1.361 0 1 0 0-2.722h-1.36a1.361 1.361 0 1 0 0 2.722z"/></g><g><path fill="#004fac" d="M73.498 61.248h-12.25a1.361 1.361 0 1 0 0 2.722h12.25a1.361 1.361 0 0 0 0-2.722z"/></g><g><path fill="#004fac" d="M78.942 61.248h-1.36a1.361 1.361 0 1 0 0 2.722h1.36a1.36 1.36 0 0 0 0-2.722z"/></g><g><path fill="#004fac" d="M42.193 24.5c-.751 0-1.36.608-1.36 1.36v1.361a1.361 1.361 0 0 0 2.721 0v-1.36c0-.753-.609-1.362-1.36-1.362z"/></g><g><path fill="#004fac" d="M21.777 46.276h-1.36a1.361 1.361 0 1 0 0 2.722h1.36a1.361 1.361 0 1 0 0-2.722z"/></g><g><path fill="#004fac" d="M63.97 46.276h-1.36a1.361 1.361 0 1 0 0 2.722h1.36a1.36 1.36 0 0 0 0-2.722z"/></g><g><path fill="#004fac" d="M56.63 31.276l-.962.962a1.361 1.361 0 0 0 1.924 1.925l.962-.963a1.36 1.36 0 1 0-1.924-1.925z"/></g><g><path fill="#004fac" d="M27.757 31.276a1.36 1.36 0 1 0-1.925 1.925l.963.962a1.361 1.361 0 0 0 1.924-1.925z"/></g><g><path fill="#004fac" d="M41.193 47.526c0-.828.447-1.5 1-1.5.552 0 1 .672 1 1.5 0 .829-.448 1.5-1 1.5-.553 0-1-.671-1-1.5z"/></g><g><path fill="#004fac" d="M66.692 50.36H48.43a6.803 6.803 0 0 0-2.472-8.395l-1.05-9.45a1.36 1.36 0 0 0-1.353-1.21h-2.722c-.693 0-1.276.521-1.352 1.21l-1.05 9.45a6.803 6.803 0 0 0-2.472 8.394H17.694v-2.722c0-13.508 10.991-24.499 24.5-24.499 13.508 0 24.499 10.99 24.499 24.5zm-21.457 0h-6.084A4.083 4.083 0 0 1 40.331 44c.406-.208.68-.606.73-1.06l.99-8.914h.285l.99 8.914c.05.454.324.852.73 1.06a4.083 4.083 0 0 1 1.18 6.358zm28.263 0h-4.083v-2.723c0-15.009-12.212-27.221-27.222-27.221-15.009 0-27.22 12.212-27.22 27.221v2.722h-4.084a1.361 1.361 0 1 0 0 2.722h62.609a1.361 1.361 0 1 0 0-2.722z"/></g></g></g></g></svg>