<svg xmlns="http://www.w3.org/2000/svg" width="83" height="84" viewBox="0 0 83 84"><g><g><g><g><g><path fill="#4886fc" d="M80.97 61.867v3.982c0 2.199-1.783 3.981-3.982 3.982H5.309a3.983 3.983 0 0 1-3.982-3.982v-3.982z"/></g><g><path fill="#4886fc" d="M6.636 48.593a2.655 2.655 0 1 1 5.31 0 2.655 2.655 0 0 1-5.31 0z"/></g><g><path fill="#4886fc" d="M6.636 26.027h5.31v9.292h-5.31z"/></g><g><path fill="#4886fc" d="M27.875 55.23a2.655 2.655 0 1 1 5.31 0 2.655 2.655 0 0 1-5.31 0z"/></g><g><path fill="#4886fc" d="M43.803 26.027h5.31v9.292h-5.31z"/></g><g><path fill="#4886fc" d="M49.113 43.283a2.655 2.655 0 1 1 5.31 0 2.655 2.655 0 0 1-5.31 0z"/></g><g><path fill="#4886fc" d="M71.514 22.045a10.639 10.639 0 0 1-10.292 0"/></g><g><path fill="#4886fc" d="M70.351 52.575a2.655 2.655 0 1 1 5.31 0 2.655 2.655 0 0 1-5.31 0z"/></g><g><path fill="#4886fc" d="M26.547 77.795H55.75v3.982H26.547z"/></g><g><path fill="#fff" d="M6.636 26.027h5.31v9.292h-5.31z"/></g><g><path fill="#fff" d="M43.803 26.027h5.31v9.292h-5.31z"/></g><g><path fill="#fff" d="M15.928 11.426h5.31v23.893h-5.31z"/></g><g><path fill="#fff" d="M25.22 2.134h5.31V35.32h-5.31z"/></g><g><path fill="#fff" d="M34.511 7.444h5.31v27.875h-5.31z"/></g><g><path fill="#4886fc" d="M6.636 48.593a2.655 2.655 0 1 1 5.31 0 2.655 2.655 0 0 1-5.31 0z"/></g><g><path fill="#4886fc" d="M27.875 55.23a2.655 2.655 0 1 1 5.31 0 2.655 2.655 0 0 1-5.31 0z"/></g><g><path fill="#4886fc" d="M49.113 43.283a2.655 2.655 0 1 1 5.31 0 2.655 2.655 0 0 1-5.31 0z"/></g><g><path fill="#4886fc" d="M70.351 52.575a2.655 2.655 0 1 1 5.31 0 2.655 2.655 0 0 1-5.31 0z"/></g></g><g/><g/><g/><g><path fill="#4886fc" d="M76.988 12.753a10.623 10.623 0 0 1-15.764 9.292h-.002a10.607 10.607 0 0 1-2.363-1.782l7.51-7.51z"/></g></g><g><g><path fill="#004fac" d="M45.13 33.992v-6.637h2.655v6.637zM10.62 27.355v6.637H7.964v-6.637zm69.024 33.184H2.654V26.027a2.658 2.658 0 0 1 2.655-2.655h9.292v10.62h-1.328v-7.965c0-.733-.594-1.327-1.327-1.327h-5.31c-.733 0-1.327.594-1.327 1.327v9.292c0 .733.594 1.327 1.327 1.327h42.477c.733 0 1.327-.594 1.327-1.327v-9.292c0-.733-.594-1.327-1.327-1.327h-5.31c-.733 0-1.327.594-1.327 1.327v7.965h-1.328v-10.62h19.759a11.902 11.902 0 0 0 10.924 0h5.157a2.658 2.658 0 0 1 2.655 2.655zm0 5.31a2.658 2.658 0 0 1-2.655 2.655H5.309a2.658 2.658 0 0 1-2.655-2.655v-2.655h76.989zM33.698 76.468l1.77-5.31h11.36l1.77 5.31zm20.724 2.655v1.327H27.875v-1.327zm-37.167-66.37h2.655v21.239h-2.655zm5.31 10.62h1.327v10.619h-1.327zm3.982-19.911h2.655v30.53h-2.655zm5.31 19.91h1.327v10.62h-1.327zm3.982-14.6h2.655v25.22h-2.655zm21.238 3.981a9.306 9.306 0 0 1 7.964-9.195v8.646l-6.11 6.111a9.243 9.243 0 0 1-1.854-5.562zm9.841 1.328h8.646a9.285 9.285 0 0 1-14.757 6.11zm.778-10.523a9.31 9.31 0 0 1 7.868 7.868h-7.868zm9.292 17.16h-1.724c4.404-4.913 3.992-12.466-.92-16.87-4.913-4.404-12.466-3.992-16.87.92a11.946 11.946 0 0 0 0 15.95H41.148V7.444c0-.733-.594-1.328-1.327-1.328h-5.31c-.733 0-1.327.595-1.327 1.328v13.274h-1.327V2.134c0-.733-.594-1.327-1.328-1.327h-5.31c-.732 0-1.327.594-1.327 1.327v18.584h-1.327v-9.292c0-.733-.594-1.327-1.327-1.327h-5.31c-.733 0-1.327.594-1.327 1.327v9.292H5.309a5.316 5.316 0 0 0-5.31 5.31v39.82a5.315 5.315 0 0 0 5.31 5.31h27.36l-1.77 5.31h-4.352c-.733 0-1.327.594-1.327 1.327v2.655H11.946a1.327 1.327 0 0 0 0 2.655H70.35a1.327 1.327 0 1 0 0-2.655H57.077v-2.655c0-.733-.594-1.327-1.327-1.327h-4.352l-1.77-5.31h27.36a5.316 5.316 0 0 0 5.31-5.31v-39.82a5.316 5.316 0 0 0-5.31-5.31z"/></g><g><path fill="#004fac" d="M14.6 64.521H6.637a1.327 1.327 0 0 0 0 2.655h7.965a1.327 1.327 0 1 0 0-2.655z"/></g><g><path fill="#004fac" d="M19.91 64.521h-1.327a1.327 1.327 0 0 0 0 2.655h1.327a1.327 1.327 0 1 0 0-2.655z"/></g><g><path fill="#004fac" d="M55.75 33.992c.352 0 .69-.14.938-.39l4.92-4.92h11.398a1.327 1.327 0 0 0 0-2.655H61.059c-.352 0-.69.14-.938.389l-5.31 5.31a1.328 1.328 0 0 0 .939 2.266z"/></g><g><path fill="#004fac" d="M73.006 53.902a1.327 1.327 0 1 1 0-2.655 1.327 1.327 0 0 1 0 2.655zm-21.238-9.291a1.327 1.327 0 1 1 0-2.655 1.327 1.327 0 0 1 0 2.655zM30.529 56.557a1.33 1.33 0 0 1-1.327-1.327v-.007a1.327 1.327 0 1 1 1.327 1.334zM10.62 48.6a1.33 1.33 0 1 1 0-.006zm62.387-.006a3.982 3.982 0 0 0-3.443 1.986l-13.896-8.107a3.982 3.982 0 0 0-7.817.1L33.866 53.058a3.979 3.979 0 0 0-6.882.362l-13.822-5.76a3.984 3.984 0 1 0-.325 2.74l13.821 5.76a3.981 3.981 0 0 0 7.789-.22L48.43 45.455a3.978 3.978 0 0 0 6.78-.175l13.895 8.107a3.982 3.982 0 1 0 3.9-4.793z"/></g><g><path fill="#004fac" d="M62.387 56.557h-9.292a1.327 1.327 0 0 0 0 2.655h9.292a1.327 1.327 0 0 0 0-2.655z"/></g><g><path fill="#004fac" d="M62.387 52.575h-3.983a1.327 1.327 0 0 0 0 2.655h3.983a1.327 1.327 0 1 0 0-2.655z"/></g><g><path fill="#004fac" d="M6.636 40.628h14.602a1.327 1.327 0 1 0 0-2.654H6.636a1.327 1.327 0 0 0 0 2.654z"/></g><g><path fill="#004fac" d="M25.22 40.628h1.327a1.327 1.327 0 1 0 0-2.654H25.22a1.327 1.327 0 0 0 0 2.654z"/></g></g></g></g></svg>