<svg xmlns="http://www.w3.org/2000/svg" width="79" height="61" viewBox="0 0 79 61"><g><g><g><g><path fill="#4886fb" d="M39.34 32.995a2.538 2.538 0 1 1 0-5.076 2.538 2.538 0 0 1 0 5.076zm12.056-10.152H27.285a1.904 1.904 0 0 0-1.904 1.903v15.229c0 1.051.853 1.903 1.904 1.903h24.111a1.904 1.904 0 0 0 1.904-1.903V24.746a1.904 1.904 0 0 0-1.904-1.903z"/></g><g><path fill="#4886fb" d="M6.379 53.056a2.5 2.5 0 1 1 5 0 2.5 2.5 0 0 1-5 0z"/></g><g><path fill="#4886fb" d="M16.379 53.056a2.5 2.5 0 1 1 5 0 2.5 2.5 0 0 1-5 0z"/></g><g><path fill="#4886fb" d="M27.379 53.056c0-1.38.895-2.5 2-2.5 1.104 0 2 1.12 2 2.5 0 1.381-.896 2.5-2 2.5-1.105 0-2-1.119-2-2.5z"/></g><g><path fill="#4886fb" d="M36.379 53.056c0-1.38 1.343-2.5 3-2.5s3 1.12 3 2.5c0 1.381-1.343 2.5-3 2.5s-3-1.119-3-2.5z"/></g><g><path fill="#4886fb" d="M47.379 53.056c0-1.38.895-2.5 2-2.5 1.104 0 2 1.12 2 2.5 0 1.381-.896 2.5-2 2.5-1.105 0-2-1.119-2-2.5z"/></g><g><path fill="#4886fb" d="M57.379 53.056a2.5 2.5 0 1 1 5 0 2.5 2.5 0 0 1-5 0z"/></g><g><path fill="#4886fb" d="M67.379 53.056a2.5 2.5 0 1 1 5 0 2.5 2.5 0 0 1-5 0z"/></g><g><path fill="#4886fb" d="M36.379 53.056c0-1.38 1.343-2.5 3-2.5s3 1.12 3 2.5c0 1.381-1.343 2.5-3 2.5s-3-1.119-3-2.5z"/></g><g><path fill="#4886fb" d="M27.379 53.056c0-1.38.895-2.5 2-2.5 1.104 0 2 1.12 2 2.5 0 1.381-.896 2.5-2 2.5-1.105 0-2-1.119-2-2.5z"/></g><g><path fill="#4886fb" d="M16.379 53.056a2.5 2.5 0 1 1 5 0 2.5 2.5 0 0 1-5 0z"/></g><g><path fill="#4886fb" d="M6.379 53.056a2.5 2.5 0 1 1 5 0 2.5 2.5 0 0 1-5 0z"/></g><g><path fill="#4886fb" d="M67.379 53.056a2.5 2.5 0 1 1 5 0 2.5 2.5 0 0 1-5 0z"/></g><g><path fill="#4886fb" d="M57.379 53.056a2.5 2.5 0 1 1 5 0 2.5 2.5 0 0 1-5 0z"/></g><g><path fill="#4886fb" d="M47.379 53.056c0-1.38.895-2.5 2-2.5 1.104 0 2 1.12 2 2.5 0 1.381-.896 2.5-2 2.5-1.105 0-2-1.119-2-2.5z"/></g></g><g><g><path fill="#004fac" d="M52.03 39.975c0 .35-.283.634-.634.634H27.284a.635.635 0 0 1-.634-.634V24.746c0-.35.284-.634.634-.634h24.112c.35 0 .635.284.635.634zM43.149 11.42v10.153h-7.615V11.42a3.807 3.807 0 0 1 7.615 0zm-12.691 0a8.883 8.883 0 0 1 17.767 0v10.153h-2.538V11.42a6.345 6.345 0 1 0-12.69 0v10.153h-2.539zm20.305 10.153V11.42C50.762 5.113 45.648 0 39.341 0c-6.308 0-11.422 5.113-11.422 11.421v10.153h-.635a3.176 3.176 0 0 0-3.172 3.172v15.229a3.176 3.176 0 0 0 3.172 3.172h24.112a3.176 3.176 0 0 0 3.173-3.172V24.746a3.176 3.176 0 0 0-3.173-3.172z"/></g><g><path fill="#004fac" d="M39.34 29.188a1.269 1.269 0 1 1 .001 2.537 1.269 1.269 0 0 1 0-2.537zm-1.268 4.858v2.756a1.269 1.269 0 1 0 2.537 0v-2.756a3.807 3.807 0 1 0-2.537 0z"/></g><g><path fill="#004fac" d="M76.143 58.376H2.539V48.224h73.604zm1.269-12.69H1.27c-.701 0-1.27.568-1.27 1.268v12.69c0 .702.569 1.27 1.27 1.27h76.142c.7 0 1.269-.568 1.269-1.27v-12.69c0-.7-.568-1.269-1.27-1.269z"/></g><g><path fill="#004fac" d="M39.34 52.03a1.269 1.269 0 1 1 0 2.538 1.269 1.269 0 0 1 0-2.537zm0 5.077a3.807 3.807 0 1 0 0-7.614 3.807 3.807 0 0 0 0 7.614z"/></g><g><path fill="#004fac" d="M29.188 52.03a1.269 1.269 0 1 1 0 2.538 1.269 1.269 0 0 1 0-2.537zm0 5.077a3.807 3.807 0 1 0 0-7.615 3.807 3.807 0 0 0 0 7.615z"/></g><g><path fill="#004fac" d="M19.036 52.03a1.269 1.269 0 1 1 0 2.538 1.269 1.269 0 0 1 0-2.537zm0 5.077a3.807 3.807 0 1 0 0-7.614 3.807 3.807 0 0 0 0 7.614z"/></g><g><path fill="#004fac" d="M8.884 52.03a1.269 1.269 0 1 1 0 2.539 1.269 1.269 0 0 1 0-2.538zm0 5.077a3.807 3.807 0 1 0 0-7.615 3.807 3.807 0 0 0 0 7.615z"/></g><g><path fill="#004fac" d="M69.797 52.03a1.269 1.269 0 1 1 0 2.538 1.269 1.269 0 0 1 0-2.537zm0 5.077a3.807 3.807 0 1 0 0-7.614 3.807 3.807 0 0 0 0 7.614z"/></g><g><path fill="#004fac" d="M59.645 52.03a1.269 1.269 0 1 1 0 2.538 1.269 1.269 0 0 1 0-2.537zm0 5.077a3.807 3.807 0 1 0 0-7.614 3.807 3.807 0 0 0 0 7.614z"/></g><g><path fill="#004fac" d="M49.493 52.03a1.269 1.269 0 1 1 0 2.539 1.269 1.269 0 0 1 0-2.538zm0 5.077a3.807 3.807 0 1 0 0-7.614 3.807 3.807 0 0 0 0 7.614z"/></g></g></g></g></svg>